/* XPM */
static char * menuButtonI_xpm[] = {
"18 36 13 1",
" 	c None",
".	c #FFFFFF",
"+	c #F0F0F0",
"@	c #CCCCCC",
";	c #999999",
">	c #333333",
"#	c #F8F8F8",
"$	c #F2F2F2",
"%	c #EBEBEB",
"&	c #E5E5E5",
"*	c #DFDFDF",
"=	c #D8D8D8",
"-	c #D2D2D2",
"..................",
".+++++++++++++++++",
".+++++++++++++++++",
".++@@@@@@@@@@@++++",
".++@.#$%&*=-@+++++",
".++@#$%&*=-@++++++",
".++@$%&*=-@+++++++",
".++@%&*=-@++++++++",
".++@&*=-@+++++++++",
".++@*=-@++++++++++",
".++@=-@+++++++++++",
".++@-@++++++++++++",
".++@@+++++++++++++",
".++@++++++++++++++",
".+++++++++++++++++",
".+++++++++++++++++",
";;;;;;;;;;;;;;;;;;",
">>>>>>>>>>>>>>>>>>",
"..................",
".+++++++++++++++++",
".+++++++++++++++++",
".++@@@@@@@@@@@++++",
".++@.#$%&*=-@+++++",
".++@#$%&*=-@++++++",
".++@$%&*=-@+++++++",
".++@%&*=-@++++++++",
".++@&*=-@+++++++++",
".++@*=-@++++++++++",
".++@=-@+++++++++++",
".++@-@++++++++++++",
".++@@+++++++++++++",
".++@++++++++++++++",
".+++++++++++++++++",
".+++++++++++++++++",
";;;;;;;;;;;;;;;;;;",
">>>>>>>>>>>>>>>>>>"};
