/* XPM */
static char * menuButtonA_xpm[] = {
"18 36 14 1",
" 	c None",
".	c #FFFFFF",
"+	c #CCCCCC",
"@	c #666666",
"#	c #999999",
",	c #333333",
"$	c #B2B2DE",
"%	c #A5A5D8",
"&	c #9898D2",
"*	c #8C8CCD",
"=	c #7F7FC7",
"-	c #7272C2",
";	c #6666BD",
">	c #5959B7",
"..................",
".+++++++++++++++++",
".+++++++++++++++++",
".++@@@@@@@@@@#++++",
".++@$%&*=-;>@+++++",
".++@%&*=-;>@++++++",
".++@&*=-;>@+++++++",
".++@*=-;>@++++++++",
".++@=-;>@+++++++++",
".++@-;>@++++++++++",
".++@;>@+++++++++++",
".++@>@++++++++++++",
".++@@+++++++++++++",
".++#++++++++++++++",
".+++++++++++++++++",
".+++++++++++++++++",
"##################",
",,,,,,,,,,,,,,,,,,",
"..................",
".+++++++++++++++++",
".+++++++++++++++++",
".++++++++++++#++++",
".+++++++++++@@++++",
".++++++++++@>@++++",
".+++++++++@>;@++++",
".++++++++@>;-@++++",
".+++++++@>;-=@++++",
".++++++@>;-=*@++++",
".+++++@>;-=*&@++++",
".++++@>;-=*&%@++++",
".+++@>;-=*&%$@++++",
".++#@@@@@@@@@@++++",
".+++++++++++++++++",
".+++++++++++++++++",
"##################",
",,,,,,,,,,,,,,,,,,"};
