/* XPM */
static char * up_xpm[] = {
"64 20 8 1",
" 	c None",
"=	c #CCCCCC",
"@	c #EEEEEE",
"$	c #333333",
"+	c #666666",
"&	c #999999",
"/	c #FFFFFF",
".	c #EEEEEE",
"................................................................",
"................................................................",
"............................../@$+&.............................",
"............................/@===&$+&...........................",
"........................../@=======&$+&.........................",
"......................../@===========&$+&.......................",
"....................../@===============&$+&.....................",
"..................../@===================&$+&...................",
"................../@=======================&$+&.................",
"................/@===========================&$+&...............",
"............../@===============================&$+&.............",
"............/@===================================&$+&...........",
"........../@=======================================&$+&.........",
"......../@===========================================&$+&.......",
"....../@===============================================&$+&.....",
"..../@===================================================&+&....",
"....@++++++++++++++++++++++++++++++++++++++++++++++++++++++&....",
".....&&&&&&&&&&&&&&&&&&&&&&&&&&&&&&&&&&&&&&&&&&&&&&&&&&&&&&.....",
"................................................................",
"................................................................"};
