/* XPM */
static char * start_xpm[] = {
"32 20 2 1",
" 	c #EEEEEE",
".	c #000099",
"                                ",
"                                ",
"                                ",
"                                ",
"         ....        .          ",
"          ....      .           ",
"           ....    .            ",
"            ....  .             ",
"             ... .              ",
"              . ..              ",
"             . ....             ",
"            .   ....            ",
"           .     ....           ",
"          .       ....          ",
"         .         ....         ",
"                                ",
"                                ",
"                                ",
"                                ",
"                                "};
