/* XPM */
static char * start_xpm[] = {
"48 20 3 1",
" 	c #EEEEEE",
".	c #8C8CCD",
"+	c #666666",
"                                                ",
"      +                                         ",
"     +.+                                        ",
"    +...+                                       ",
"   +++++++     ++++++        ++                 ",
"                +....+      +.+                 ",
"                 +....+    +.+                  ",
"                  +....+  +.+                   ",
"                   +...+ +.+                    ",
"                    +.+ +.+                     ",
"                   +.+ +..+                     ",
"                  +.+ +....+                    ",
"                 +.+   +....+                   ",
"                +.+     +....+                  ",
"               +.+       +....+                 ",
"               ++         ++++++                ",
"                                                ",
"                                                ",
"                                                ",
"                                                "};
