/* XPM */
static char * start_xpm[] = {
"48 20 3 1",
" 	c #EEEEEE",
".	c #666666",
"+	c #8C8CCD",
"                                                ",
"                                                ",
"     .                                          ",
"    .+.                                         ",
"   .+++.         ....        .                  ",
"  .......         .++.      .                   ",
"                   .++.    .                    ",
"                    .++.  .                     ",
"                     .+. .                      ",
"                      . +.                      ",
"                     . .++.                     ",
"                    .   .++.                    ",
"                   .     .++.                   ",
"                  .       .++.                  ",
"                 .         ....                 ",
"                                                ",
"                                                ",
"                                                ",
"                                                ",
"                                                "};
