/* XPM */
static char * closeI_xpm[] = {
"15 36 6 1",
" 	c None",
".	c #FFFFFF",
"+	c #EEEEEE",
"@	c #CCCCCC",
"#	c #999999",
"$	c #333333",
"...............",
"++++++++++++++.",
"++++++++++++++.",
"++@@@@@@@@@+++.",
"+@+++++++++@++.",
"+@+++@+++++@++.",
"+@+++@@++++@++.",
"+@+++@+@+++@++.",
"+@+++@++@++@++.",
"+@+++@+@+++@++.",
"+@+++@@++++@++.",
"+@+++@+++++@++.",
"+@+++++++++@++.",
"++@@@@@@@@@+++.",
"++++++++++++++.",
"++++++++++++++.",
"###############",
"$$$$$$$$$$$$$$$",
"...............",
"++++++++++++++.",
"++++++++++++++.",
"++@@@@@@@@@+++.",
"+@+++++++++@++.",
"+@+++@+++++@++.",
"+@+++@@++++@++.",
"+@+++@+@+++@++.",
"+@+++@++@++@++.",
"+@+++@+@+++@++.",
"+@+++@@++++@++.",
"+@+++@+++++@++.",
"+@+++++++++@++.",
"++@@@@@@@@@+++.",
"++++++++++++++.",
"++++++++++++++.",
"###############",
"$$$$$$$$$$$$$$$"};
