/* XPM */
static char * closeA_xpm[] = {
"15 36 8 1",
" 	c None",
".	c #FFFFFF",
"+	c #EEEEEE",
"@	c #666666",
"#	c #999999",
"Y	c #FFFF00",
"$	c #333333",
"&	c #CCCCCC",
"...............",
"++++++++++++++.",
"++++++++++++++.",
"++@@@@@@@@@+++.",
"+@#+++++++#@++.",
"+@+++@+++++@++.",
"+@+++@@++++@++.",
"+@+++@Y@+++@++.",
"+@+++@YY@++@++.",
"+@+++@Y@+++@++.",
"+@+++@@++++@++.",
"+@+++@+++++@++.",
"+@#+++++++#@++.",
"++@@@@@@@@@+++.",
"++++++++++++++.",
"++++++++++++++.",
"###############",
"$$$$$$$$$$$$$$$",
"...............",
"++++++++++++++.",
"++++++++++++++.",
"++&&&&&&@@@@@@@",
"+&+++++@#++++++",
"+&+++++@+++@+++",
"+&+++++@+++@@++",
"+&+++++@+++@Y@+",
"+&+++++@+++@YY@",
"+&+++++@+++@Y@+",
"+&+++++@+++@@++",
"+&+++++@+++@+++",
"+&+++++@#++++++",
"++&&&&&&@@@@@@@",
"++++++++++++++.",
"++++++++++++++.",
"###############",
"$$$$$$$$$$$$$$$"};
