/* XPM */
static char * frameATL_xpm[] = {
"16 16 6 1",
" 	c None",
".	c #333333",
"+	c #EEEEEE",
"@	c #CCCCCC",
"#	c #999999",
"$	c #666666",
"................",
".##############@",
".#@@@@@@@@@@@@#@",
".#@$$$$$$$$$$$$$",
".#@$$$$$$$$$$$$$",
".#@$$$$$$$$$$$$$",
".#@$$$$$$$$$$$$$",
".#@$$$$$$$$$$$$$",
".#@$$$$$$$$$$$$$",
".#@$$$$$$$$$$$$$",
".#@$$$$$$$$$$$$$",
".#@$$$$$$$$$$$$$",
".#@$$$$$$$$$$$$$",
".#@$$$$$$$$$$$$$",
".##$$$$$$$$$$$$$",
".@@$$$$$$$$$$$$$"};
