/* XPM */
static char * frameITR_xpm[] = {
"16 16 5 1",
" 	c None",
".	c #333333",
"+	c #EEEEEE",
"@	c #CCCCCC",
"#	c #999999",
"................",
"+@+++++++++++++.",
"+@@@@@@@@@@@@@@.",
"#############+@.",
"............#+@.",
"............#+@.",
"............#+@.",
"............#+@.",
"............#+@.",
"............#+@.",
"............#+@.",
"............#+@.",
"............#+@.",
"............#+@.",
"............#++.",
"............#@@."};
