/* XPM */
static char * frameABL_xpm[] = {
"16 16 5 1",
" 	c None",
".	c #333333",
"#	c #999999",
"@	c #CCCCCC",
"$	c #666666",
".##$$$$$$$$$$$$$",
".@@$$$$$$$$$$$$$",
".#@$$$$$$$$$$$$$",
".#@$$$$$$$$$$$$$",
".#@$$$$$$$$$$$$$",
".#@$$$$$$$$$$$$$",
".#@$$$$$$$$$$$$$",
".#@$$$$$$$$$$$$$",
".#@$$$$$$$$$$$$$",
".#@$$$$$$$$$$$$$",
".#@$$$$$$$$$$$$$",
".#@$$$$$$$$$$$$$",
".#@$$$$$$$$$$$$$",
".#@@@@@@@@@@@@#@",
".##############@",
"................"};
