/* XPM */
static char * maximizeI_xpm[] = {
"13 36 6 1",
" 	c None",
".	c #FFFFFF",
"+	c #EEEEEE",
"@	c #CCCCCC",
"#	c #999999",
"$	c #333333",
".............",
"+++++++++++++",
"+++++++++++++",
"++@@@@@@@@@++",
"+@+++++++++@+",
"+@+++++++++@+",
"+@++++++@@@@+",
"+@+++++@+++@+",
"+@++++@++++@+",
"+@+++@+++++@+",
"+@@@@++++++@+",
"+@+++++++++@+",
"+@+++++++++@+",
"++@@@@@@@@@++",
"+++++++++++++",
"+++++++++++++",
"#############",
"$$$$$$$$$$$$$",
".............",
"+++++++++++++",
"+++++++++++++",
"++@@@@@@@@@++",
"+@+++++++++@+",
"+@+++++++++@+",
"+@++++++@@@@+",
"+@+++++@+++@+",
"+@++++@++++@+",
"+@+++@+++++@+",
"+@@@@++++++@+",
"+@+++++++++@+",
"+@+++++++++@+",
"++@@@@@@@@@++",
"+++++++++++++",
"+++++++++++++",
"#############",
"$$$$$$$$$$$$$"};
