/* XPM */
static char * menuButtonA_xpm[] = {
"18 36 7 1",
" 	c None",
".	c #FFFFFF",
"+	c #CCCCCC",
"@	c #666666",
"#	c #999999",
"$	c #333333",
"*	c #8C8CCD",
"..................",
".+++++++++++++++++",
".+++++++++++++++++",
".++@@@@@@@@@@#++++",
".++@##******@+++++",
".++@#******@++++++",
".++@******@+++++++",
".++@*****@++++++++",
".++@****@+++++++++",
".++@***@++++++++++",
".++@**@+++++++++++",
".++@*@++++++++++++",
".++@@+++++++++++++",
".++#++++++++++++++",
".+++++++++++++++++",
".+++++++++++++++++",
"##################",
"$$$$$$$$$$$$$$$$$$",
"..................",
".+++++++++++++++++",
".+++++++++++++++++",
".++++++++++++#++++",
".+++++++++++@@++++",
".++++++++++@*@++++",
".+++++++++@**@++++",
".++++++++@***@++++",
".+++++++@****@++++",
".++++++@*****@++++",
".+++++@******@++++",
".++++@******#@++++",
".+++@******##@++++",
".++#@@@@@@@@@@++++",
".+++++++++++++++++",
".+++++++++++++++++",
"##################",
"$$$$$$$$$$$$$$$$$$"};
