/* XPM */
static char * menuButtonI_xpm[] = {
"18 36 6 1",
" 	c None",
".	c #FFFFFF",
"+	c #EEEEEE",
"@	c #CCCCCC",
"#	c #999999",
"$	c #333333",
"..................",
".+++++++++++++++++",
".+++++++++++++++++",
".++@@@@@@@@@@@++++",
".++@.......+@+++++",
".++@..++++@@++++++",
".++@.++++@@+++++++",
".++@.+++@@++++++++",
".++@.++@@+++++++++",
".++@.+@@++++++++++",
".++@.@@+++++++++++",
".++@+@++++++++++++",
".++@@+++++++++++++",
".++@++++++++++++++",
".+++++++++++++++++",
".+++++++++++++++++",
"##################",
"$$$$$$$$$$$$$$$$$$",
"..................",
".+++++++++++++++++",
".+++++++++++++++++",
".++@@@@@@@@@@@++++",
".++@.......+@+++++",
".++@..++++@@++++++",
".++@.++++@@+++++++",
".++@.+++@@++++++++",
".++@.++@@+++++++++",
".++@.+@@++++++++++",
".++@.@@+++++++++++",
".++@+@++++++++++++",
".++@@+++++++++++++",
".++@++++++++++++++",
".+++++++++++++++++",
".+++++++++++++++++",
"##################",
"$$$$$$$$$$$$$$$$$$"};
