/* XPM */
static char * minimizeA_xpm[] = {
"13 36 7 1",
" 	c None",
".	c #FFFFFF",
"+	c #EEEEEE",
"@	c #666666",
"#	c #999999",
"$	c #333333",
"%	c #CCCCCC",
".............",
"+++++++++++++",
"+++++++++++++",
"++@@@@@@@@@++",
"+@#+++++++#@+",
"+@+++++++++@+",
"+@+++++++++@+",
"+@@@@++++++@+",
"+@+++@+++++@+",
"+@++++@++++@+",
"+@+++++@+++@+",
"+@+++++@+++@+",
"+@#++++@++#@+",
"++@@@@@@@@@++",
"+++++++++++++",
"+++++++++++++",
"#############",
"$$$$$$$$$$$$$",
".............",
"+++++++++++++",
"+++++++++++++",
"++%%%%%%%%%++",
"+%+++++++++%+",
"+%+++++++++%+",
"+%+++++++++%+",
"+%%%%++++++%+",
"+%+++%+++++%+",
"+%++++%++++%+",
"+%+++++%+++%+",
"@@@@+++%+++%+",
"@+++@++%+++%+",
"@++++@%%%%%++",
"@+++++@++++++",
"@+++++@++++++",
"@#++++@######",
"$@@@@@@$$$$$$"};
