/* XPM */
static char * bg_xpm[] = {
"1 16 2 1",
" 	c #707888",
".	c #687080",
" ",
" ",
" ",
" ",
" ",
" ",
" ",
" ",
" ",
" ",
" ",
" ",
" ",
" ",
" ",
"."};
