/* XPM */
static char * titleIR_xpm[] = {
"10 18 6 1",
" 	c None",
".	c #FFFFFF",
"+	c #CCCCCC",
"@	c #EEEEEE",
"#	c #999999",
"$	c #333333",
".....+....",
"@@@@.+@@@@",
"@@@@.+@@@@",
"@@@@.+@@@@",
"@@@@.+@@@@",
"@@@@.+@@@@",
"@@@@.+@@@@",
"@@@@.+@@@@",
"@@@@.+@@@@",
"@@@@.+@@@@",
"@@@@.+@@@@",
"@@@@.+@@@@",
"@@@@.+@@@@",
"@@@@.+@@@@",
"@@@@.+@@@@",
"@@@@.+@@@@",
"##########",
"$$$$$$$$$$"};
