/* XPM */
static char * titleIB_xpm[] = {
"1 18 7 1",
" 	c None",
".	c #FFFFFF",
"+	c #EEEEEE",
"@      c #CCCCCC",
"$      c #999999",
"%      c #666666",
"#      c #333333",
".",
"+",
"+",
"+",
".",
"@",
"+",
".",
"@",
"+",
".",
"@",
"+",
"+",
"+",
"+",
"$",
"#"};
