/* XPM */
static char * titleAM_xpm[] = {
"4 18 5 1",
" 	c None",
".	c #FFFFFF",
"+	c #CCCCCC",
"@	c #999999",
"#	c #333333",
"....",
"++++",
"++++",
"++++",
"++++",
"++++",
"++++",
"++++",
"++++",
"++++",
"++++",
"++++",
"++++",
"++++",
"++++",
"++++",
"@@@@",
"####"};
