/* XPM */
static char * titleIT_xpm[] = {
"1 18 5 1",
" 	c None",
".	c #FFFFFF",
"+	c #EEEEEE",
"@	c #999999",
"#	c #333333",
".",
"+",
"+",
"+",
"+",
"+",
"+",
"+",
"+",
"+",
"+",
"+",
"+",
"+",
"+",
"+",
"@",
"#"};
