/* XPM */
static char * titleAR_xpm[] = {
"10 18 7 1",
" 	c None",
".	c #FFFFFF",
"+	c #EEEEEE",
"%	c #666666",
"#	c #999999",
"&	c #CCCCCC",
"$	c #333333",
".....++&#+",
"&&&&&&#%&+",
"&&&&&#%&++",
"&&&&#%#+++",
"&&&&#%&+++",
"&&&&%#++++",
"&&&#%#++++",
"&&&#%&++++",
"&&&#%&++++",
"&&&#%&++++",
"&&&#%#++++",
"&&&&%#++++",
"&&&&#%&+++",
"&&&&#%#+++",
"&&&&&#%&++",
"&&&&&&#%&+",
"##########",
"$$$$$$$$$$"};
